:SAMPLES-PER-SECOND 25
:FULLY-SPECIFIED
:DEGREES
519
root  -2.74196 67.3425 37.8828 -177.756 2.16313 -178.468
RightUpLeg  -3.08966 1.88283 3.90883
RightLeg  5.24907 -2.60643 -1.94502
RightFoot  -6.68445 0.107108 -3.75066
RightToes  2.84633e-005 7.89722e-005 -0.000426369
Spine  0.731927 -0.471381 1.94868
Spine1  1.44628 -0.972047 4.29612
HEad  29.4283 -0.189935 -5.48456
LeftShoulder1  -3.88251e-019 0 -3.92111e-022
LeftArm  -33.2459 1.18723 -88.6102
LeftForeArm  44.6116 1.93675 -1.31724
LeftHand  -0.454776 -4.07767 5.84869
RightShoulder  7.45443e-017 -2.42657e-020 1.96277e-018
RightArm  -28.7271 -16.6835 72.2662
RightForeArm  28.4457 4.06873 5.14514
RightHand  -1.20746 9.47008 -9.78165
LeftUpLeg  -0.00218578 -0.415425 -3.08016
LeftLeg  0.777023 8.25335 0.128271
LeftFoot  -3.1022 -0.0989753 1.62855
LeftToes  3.91355e-005 3.11907e-005 -4.10385e-006
520
root  -2.63531 67.2988 37.7083 -178.242 2.35269 -178.573
RightUpLeg  -2.65723 1.97134 4.00765
RightLeg  5.99411 -2.55454 -1.96655
RightFoot  -6.96845 0.13128 -4.66358
RightToes  2.84633e-005 7.89722e-005 -0.000426369
Spine  0.998583 -0.470782 1.88111
Spine1  1.98012 -0.983595 4.10192
HEad  28.7382 -0.206196 -5.24424
LeftShoulder1  -3.88251e-019 0 -3.92111e-022
LeftArm  -33.2971 0.671876 -87.9004
LeftForeArm  42.6864 2.00869 -1.38419
LeftHand  -0.581948 -4.08091 7.40221
RightShoulder  7.45443e-017 -2.42657e-020 1.96277e-018
RightArm  -28.4249 -15.2712 73.1697
RightForeArm  29.4746 4.13716 5.71421
RightHand  -1.27156 9.87122 -10.0223
LeftUpLeg  0.278007 -0.287772 -2.94274
LeftLeg  2.07185 8.33439 0.168456
LeftFoot  -4.71229 0.00270179 0.436195
LeftToes  3.91355e-005 3.11907e-005 -4.10385e-006
521
root  -2.51776 67.2444 37.518 -178.788 2.67343 -178.734
RightUpLeg  -2.27521 2.2185 4.17067
RightLeg  7.04289 -2.56818 -2.15113
RightFoot  -7.37955 0.14635 -5.6644
RightToes  2.84633e-005 7.89722e-005 -0.000426369
Spine  1.28536 -0.405094 1.84292
Spine1  2.55646 -0.859788 3.87147
HEad  28.4027 -0.24765 -5.05875
LeftShoulder1  -3.88251e-019 0 -3.92111e-022
LeftArm  -33.4383 0.236883 -87.0687
LeftForeArm  40.3399 2.06735 -1.30597
LeftHand  -0.666127 -3.86044 8.62098
RightShoulder  7.45443e-017 -2.42657e-020 1.96277e-018
RightArm  -27.8259 -13.8002 73.8704
RightForeArm  30.8809 4.368 6.65517
RightHand  -1.31577 9.82267 -10.3866
LeftUpLeg  0.026507 -0.0610759 -2.65943
LeftLeg  4.52411 8.59707 -0.0194753
LeftFoot  -6.17921 0.0527198 -0.344994
LeftToes  3.91355e-005 3.11907e-005 -4.10385e-006
522
root  -2.38303 67.1222 37.3609 -179.035 2.93428 -178.833
RightUpLeg  -2.68758 2.8351 4.40376
RightLeg  9.05302 -2.99562 -2.36507
RightFoot  -8.69238 0.0940112 -6.60736
RightToes  2.84633e-005 7.89722e-005 -0.000426369
Spine  1.47278 -0.284468 1.89768
Spine1  2.93565 -0.606222 3.60657
HEad  28.3082 -0.525106 -4.90494
LeftShoulder1  -3.88251e-019 0 -3.92111e-022
LeftArm  -33.3735 0.0391533 -86.1175
LeftForeArm  38.586 2.11641 -1.31974
LeftHand  -0.668633 -3.77417 8.72866
RightShoulder  7.45443e-017 -2.42657e-020 1.96277e-018
RightArm  -26.9822 -12.907 74.3775
RightForeArm  32.2331 5.30676 8.13093
RightHand  -1.32128 9.61493 -10.5639
LeftUpLeg  -1.84879 2.24784 -2.0433
LeftLeg  9.52505 6.52279 -0.327115
LeftFoot  -8.37334 0.0706828 -0.832934
LeftToes  3.91355e-005 3.11907e-005 -4.10385e-006
523
root  -2.23689 66.8713 37.2723 -178.694 2.47987 -178.717
RightUpLeg  -4.39092 3.58376 4.67324
RightLeg  12.2856 -4.25221 -2.44717
RightFoot  -10.6914 -0.0292118 -7.67327
RightToes  2.84633e-005 7.89722e-005 -0.000426369
Spine  1.4764 -0.283466 2.1732
Spine1  2.94363 -0.568257 3.37603
HEad  27.9109 -1.03332 -4.74955
LeftShoulder1  -3.88251e-019 0 -3.92111e-022
LeftArm  -33.2505 -0.00457117 -85.1749
LeftForeArm  37.5691 2.13491 -1.26579
LeftHand  -0.727862 -3.83661 9.41101
RightShoulder  7.45443e-017 -2.42657e-020 1.96277e-018
RightArm  -24.8049 -12.7638 74.6663
RightForeArm  32.0562 7.18453 9.93049
RightHand  -1.28545 9.59969 -10.2998
LeftUpLeg  -6.84284 8.45142 -1.66306
LeftLeg  19.27 -0.877011 -0.273673
LeftFoot  -10.6838 0.078019 -2.67391
LeftToes  3.91355e-005 3.11907e-005 -4.10385e-006
524
root  -2.11564 66.563 37.1801 -178.153 1.20097 -178.362
RightUpLeg  -6.31068 4.07338 5.10044
RightLeg  15.6298 -5.99636 -2.70821
RightFoot  -12.7206 -0.187478 -8.42686
RightToes  2.84633e-005 7.89722e-005 -0.000426369
Spine  1.46473 -0.384868 2.63641
Spine1  2.92454 -0.755794 3.41499
HEad  26.8394 -1.80452 -4.66955
LeftShoulder1  -3.88251e-019 0 -3.92111e-022
LeftArm  -33.4276 -0.0771511 -84.6318
LeftForeArm  37.5268 2.11779 -1.1216
LeftHand  -0.822349 -3.9036 10.5259
RightShoulder  7.45443e-017 -2.42657e-020 1.96277e-018
RightArm  -18.4993 -13.0538 74.6034
RightForeArm  27.004 10.3406 10.912
RightHand  -1.25587 9.8344 -9.92788
LeftUpLeg  -13.3052 7.83451 -0.869426
LeftLeg  30.2511 -2.61186 -1.25928
LeftFoot  -11.3312 0.0691467 -5.2179
LeftToes  3.91355e-005 3.11907e-005 -4.10385e-006
525
root  -2.04734 66.4225 36.9863 -178.002 0.0640411 -178.395
RightUpLeg  -6.84614 4.67497 5.25493
RightLeg  17.3018 -7.56122 -3.2976
RightFoot  -13.9771 -0.285941 -8.32643
RightToes  2.84633e-005 7.89722e-005 -0.000426369
Spine  1.66481 -0.316628 2.80674
Spine1  3.34989 -0.651278 3.26223
HEad  25.231 -2.83377 -4.52003
LeftShoulder1  -3.88251e-019 0 -3.92111e-022
LeftArm  -33.6733 -0.147078 -84.6276
LeftForeArm  37.532 2.12321 -1.16929
LeftHand  -0.807335 -3.91107 10.3312
RightShoulder  7.45443e-017 -2.42657e-020 1.96277e-018
RightArm  -14.45 -12.9432 74.3376
RightForeArm  23.4728 12.0524 10.9211
RightHand  -1.29839 10.1487 -10.0524
LeftUpLeg  -18.2472 5.54723 -0.203779
LeftLeg  36.0323 -1.69175 -0.9342
LeftFoot  -12.0341 0.0408425 -5.01095
LeftToes  3.91355e-005 3.11907e-005 -4.10385e-006
526
root  -2.0327 66.529 36.706 -177.992 -0.381744 -179.292
RightUpLeg  -6.15336 5.12631 4.51893
RightLeg  16.9014 -8.41407 -3.7406
RightFoot  -13.8959 -0.274401 -8.08741
RightToes  2.84633e-005 7.89722e-005 -0.000426369
Spine  1.93997 -0.0083711 2.30757
Spine1  3.93956 -0.100596 2.40426
HEad  23.6656 -3.94161 -4.09706
LeftShoulder1  -3.88251e-019 0 -3.92111e-022
LeftArm  -33.5281 0.0740674 -84.8863
LeftForeArm  36.3949 2.16589 -1.31651
LeftHand  -0.762323 -3.92207 9.76178
RightShoulder  7.45443e-017 -2.42657e-020 1.96277e-018
RightArm  -19.5938 -12.066 74.2279
RightForeArm  28.8475 9.62557 11.0084
RightHand  -1.33405 10.0902 -10.3532
LeftUpLeg  -21.0148 2.77665 -0.185992
LeftLeg  34.3728 1.72903 1.63235
LeftFoot  -13.0992 0.0572427 -1.39001
LeftToes  3.91355e-005 3.11907e-005 -4.10385e-006
527
root  -2.08751 66.6701 36.3795 -177.629 -0.441574 179.671
RightUpLeg  -5.50649 4.91485 3.36686
RightLeg  15.8749 -8.41022 -3.71423
RightFoot  -13.5659 -0.248289 -8.06041
RightToes  2.84633e-005 7.89722e-005 -0.000426369
Spine  2.04006 0.412587 1.50855
Spine1  4.15764 0.689577 1.52474
HEad  22.567 -4.95506 -3.72538
LeftShoulder1  -3.88251e-019 0 -3.92111e-022
LeftArm  -33.2756 0.636848 -85.1247
LeftForeArm  35.422 2.1641 -1.17556
LeftHand  -0.787295 -4.00985 9.983
RightShoulder  7.45443e-017 -2.42657e-020 1.96277e-018
RightArm  -25.1782 -11.1828 74.3791
RightForeArm  34.2481 6.26168 9.74279
RightHand  -1.2934 9.69922 -10.2963
LeftUpLeg  -22.5451 -0.312423 0.0872064
LeftLeg  27.7934 5.47699 3.46792
LeftFoot  -10.4034 0.038347 2.45529
LeftToes  3.91355e-005 3.11907e-005 -4.10385e-006
528
root  -2.2118 66.7415 35.9696 -177.067 -0.148499 179.182
RightUpLeg  -4.75888 4.55923 2.62476
RightLeg  14.4607 -7.77637 -3.44323
RightFoot  -13.9155 -0.267865 -7.74075
RightToes  2.84633e-005 7.89722e-005 -0.000426369
Spine  2.03901 0.920224 0.885343
Spine1  4.13562 1.72487 1.20177
HEad  21.6515 -5.82522 -3.81314
LeftShoulder1  -3.88251e-019 0 -3.92111e-022
LeftArm  -33.5434 1.32098 -85.2535
LeftForeArm  36.3315 2.08729 -0.774302
LeftHand  -0.769995 -4.05567 9.72379
RightShoulder  7.45443e-017 -2.42657e-020 1.96277e-018
RightArm  -25.9503 -10.844 74.2377
RightForeArm  34.6076 4.54272 8.04741
RightHand  -1.28987 9.63922 -10.3077
LeftUpLeg  -22.9087 -2.53121 1.03844
LeftLeg  18.8933 4.50108 2.22345
LeftFoot  -3.56434 -0.194375 3.32338
LeftToes  3.91355e-005 3.11907e-005 -4.10385e-006
529
root  -2.39247 66.7457 35.4086 -176.663 0.632706 179.259
RightUpLeg  -3.42427 4.18887 2.46859
RightLeg  12.667 -6.66818 -3.22308
RightFoot  -14.5633 -0.31057 -7.5318
RightToes  2.84633e-005 7.89722e-005 -0.000426369
Spine  2.07206 1.45829 0.490241
Spine1  4.16233 2.87198 1.32785
HEad  20.5961 -6.42109 -4.16074
LeftShoulder1  -3.88251e-019 0 -3.92111e-022
LeftArm  -34.3849 2.35777 -85.2613
LeftForeArm  37.8361 1.99299 -0.320778
LeftHand  -0.697014 -3.98217 8.89653
RightShoulder  7.45443e-017 -2.42657e-020 1.96277e-018
RightArm  -25.8711 -10.673 73.6614
RightForeArm  34.9138 3.48071 7.04368
RightHand  -1.35147 9.82429 -10.6546
LeftUpLeg  -21.948 -1.13472 1.29705
LeftLeg  9.8417 -3.09539 0.983491
LeftFoot  2.11962 -0.111696 0.89537
LeftToes  3.91355e-005 3.11907e-005 -4.10385e-006
